<?xml version="1.0" encoding="UTF-8"?>
<svg xmlns="http://www.w3.org/2000/svg" xmlns:xlink="http://www.w3.org/1999/xlink" width="16px" height="16px" viewBox="0 0 16 16" version="1.1">
<g id="surface1">
<path style=" stroke:none;fill-rule:nonzero;fill:rgb(75.294118%,75.294118%,77.647059%);fill-opacity:1;" d="M 8 0 C 3.582031 0 0 3.582031 0 8 C 0 12.417969 3.582031 16 8 16 C 12.417969 16 16 12.417969 16 8 C 16 3.582031 12.417969 0 8 0 M 8 3.546875 C 8.75 3.546875 9.355469 4.15625 9.355469 4.902344 C 9.355469 5.652344 8.75 6.257812 8 6.257812 C 7.25 6.257812 6.644531 5.652344 6.644531 4.902344 C 6.644531 4.15625 7.25 3.546875 8 3.546875 M 9.804688 11.742188 C 9.804688 11.957031 9.632812 12.128906 9.417969 12.128906 L 6.582031 12.128906 C 6.367188 12.128906 6.195312 11.957031 6.195312 11.742188 L 6.195312 10.96875 C 6.195312 10.753906 6.367188 10.582031 6.582031 10.582031 L 6.96875 10.582031 L 6.96875 8.515625 L 6.582031 8.515625 C 6.367188 8.515625 6.195312 8.34375 6.195312 8.128906 L 6.195312 7.355469 C 6.195312 7.140625 6.367188 6.96875 6.582031 6.96875 L 8.644531 6.96875 C 8.859375 6.96875 9.03125 7.140625 9.03125 7.355469 L 9.03125 10.582031 L 9.417969 10.582031 C 9.632812 10.582031 9.804688 10.753906 9.804688 10.96875 Z M 9.804688 11.742188 "/>
</g>
</svg>
